<?xml version="1.0" standalone="no"?>
<!DOCTYPE svg PUBLIC "-//W3C//DTD SVG 20010904//EN"
 "http://www.w3.org/TR/2001/REC-SVG-20010904/DTD/svg10.dtd">
<svg version="1.0" xmlns="http://www.w3.org/2000/svg"
 width="500.000000pt" height="500.000000pt" viewBox="0 0 500.000000 500.000000"
 preserveAspectRatio="xMidYMid meet">
<metadata>
Created by potrace 1.11, written by Peter Selinger 2001-2013
</metadata>
<g transform="translate(0.000000,500.000000) scale(0.100000,-0.100000)"
fill="#000000" stroke="none">
<path d="M580 3750 l0 -676 88 -61 c252 -176 398 -344 742 -853 264 -391 380
-543 559 -732 86 -91 231 -220 339 -302 65 -50 74 -51 43 -8 -63 90 -109 216
-156 422 -60 267 -191 626 -302 830 -26 46 -86 143 -134 215 l-87 131 -59 18
c-160 49 -304 148 -411 281 -107 133 -170 285 -213 520 -14 76 -23 325 -12
325 24 0 189 -62 250 -94 202 -106 355 -307 427 -561 33 -115 56 -268 56 -372
l0 -82 74 -108 c90 -132 123 -188 191 -323 103 -204 213 -518 270 -771 21 -90
46 -185 56 -211 55 -140 133 -261 221 -345 93 -87 387 -223 645 -297 155 -45
193 -52 193 -36 0 7 -12 65 -26 129 -37 164 -146 492 -211 635 -97 211 -133
348 -133 505 0 229 63 391 312 802 77 129 158 270 179 314 37 77 38 82 27 135
-18 95 -5 233 32 333 62 168 216 333 422 450 l47 27 13 -57 c7 -32 13 -107 13
-168 0 -89 -5 -123 -24 -180 -46 -135 -102 -218 -218 -325 -57 -52 -189 -149
-220 -161 -5 -2 -30 -45 -56 -96 -25 -51 -107 -193 -180 -315 -74 -123 -153
-259 -175 -303 -89 -179 -123 -320 -117 -485 5 -142 38 -261 120 -445 99 -220
204 -554 251 -801 3 -19 16 -24 91 -38 111 -20 223 -33 355 -43 131 -9 545
-10 554 0 13 12 7 3426 -5 3481 -42 178 -198 331 -371 362 -25 4 -813 8 -1752
8 l-1708 1 0 -675z m3206 -1061 c43 -6 113 -22 156 -35 l79 -25 -20 -28 c-137
-192 -367 -251 -643 -164 -43 13 -78 28 -78 33 0 11 52 73 95 112 46 42 138
88 208 103 78 17 107 18 203 4z m-1065 -285 c41 -19 77 -46 117 -88 57 -62
130 -182 117 -194 -4 -4 -41 -7 -83 -6 -91 0 -164 29 -232 90 -47 43 -110 131
-133 186 -15 36 -15 37 6 41 55 10 151 -3 208 -29z"/>
<path d="M580 1950 c0 -192 1 -350 3 -350 1 0 61 -9 134 -20 399 -58 811 -205
1167 -414 52 -31 97 -56 100 -56 3 0 -40 41 -97 91 -56 50 -133 121 -172 158
-345 328 -434 411 -528 494 -132 118 -265 225 -377 304 -83 59 -216 143 -225
143 -3 0 -5 -157 -5 -350z"/>
<path d="M582 1173 c4 -256 4 -253 51 -353 30 -65 110 -149 182 -191 111 -64
83 -62 927 -63 l767 -1 -47 29 c-26 16 -144 93 -262 169 -493 321 -684 420
-1030 534 -170 56 -476 123 -563 123 l-29 0 4 -247z"/>
</g>
</svg>
